<svg width="50" height="50" viewBox="0 0 50 50" fill="none" xmlns="http://www.w3.org/2000/svg">
<path d="M20.5443 31.708C20.2563 31.708 20.0056 31.6067 19.7923 31.404C19.5896 31.1907 19.4883 30.924 19.4883 30.604C19.4883 30.2627 19.5896 29.9907 19.7923 29.788C20.0056 29.5853 20.2563 29.484 20.5443 29.484C20.8323 29.484 21.0776 29.5853 21.2803 29.788C21.4936 29.9907 21.6003 30.2627 21.6003 30.604C21.6003 30.924 21.4936 31.1907 21.2803 31.404C21.0776 31.6067 20.8323 31.708 20.5443 31.708ZM24.9974 31.708C24.7094 31.708 24.4588 31.6067 24.2454 31.404C24.0428 31.1907 23.9414 30.924 23.9414 30.604C23.9414 30.2627 24.0428 29.9907 24.2454 29.788C24.4588 29.5853 24.7094 29.484 24.9974 29.484C25.2854 29.484 25.5308 29.5853 25.7334 29.788C25.9468 29.9907 26.0534 30.2627 26.0534 30.604C26.0534 30.924 25.9468 31.1907 25.7334 31.404C25.5308 31.6067 25.2854 31.708 24.9974 31.708ZM29.4506 31.708C29.1626 31.708 28.9119 31.6067 28.6986 31.404C28.4959 31.1907 28.3946 30.924 28.3946 30.604C28.3946 30.2627 28.4959 29.9907 28.6986 29.788C28.9119 29.5853 29.1626 29.484 29.4506 29.484C29.7386 29.484 29.9839 29.5853 30.1866 29.788C30.3999 29.9907 30.5066 30.2627 30.5066 30.604C30.5066 30.924 30.3999 31.1907 30.1866 31.404C29.9839 31.6067 29.7386 31.708 29.4506 31.708Z" fill="white"/>
</svg>
